<svg xmlns="http://www.w3.org/2000/svg" viewBox="0 -0.5 20 20" shape-rendering="crispEdges">
<metadata>Made with Pixels to Svg https://codepen.io/shshaw/pen/XbxvNj</metadata>
<path stroke="#ffffff" d="M0 0h20M0 1h20M0 2h3M5 2h10M17 2h3M0 3h2M3 3h2M6 3h1M13 3h1M15 3h2M18 3h2M0 4h1M2 4h1M5 4h1M7 4h6M14 4h1M17 4h1M19 4h1M0 5h2M6 5h8M18 5h2M0 6h4M5 6h10M16 6h4M0 7h4M5 7h2M8 7h4M13 7h2M16 7h4M0 8h4M5 8h10M16 8h4M0 9h4M5 9h3M12 9h3M16 9h4M0 10h3M5 10h2M8 10h2M11 10h1M13 10h2M17 10h3M0 11h2M3 11h2M6 11h1M8 11h1M10 11h2M13 11h1M15 11h2M18 11h2M0 12h3M5 12h3M12 12h3M17 12h3M0 13h5M6 13h8M15 13h5M0 14h5M6 14h8M15 14h5M0 15h5M6 15h8M15 15h5M0 16h6M7 16h2M11 16h2M14 16h6M0 17h7M9 17h2M13 17h7M0 18h20M0 19h20" />
<path stroke="#919191" d="M3 2h2M15 2h2M2 3h1M5 3h1M7 3h6M14 3h1M17 3h1M1 4h1M3 4h2M6 4h1M13 4h1M15 4h2M18 4h1M2 5h4M14 5h4M4 6h1M15 6h1M4 7h1M7 7h1M12 7h1M15 7h1M4 8h1M15 8h1M4 9h1M8 9h4M15 9h1M3 10h2M7 10h1M10 10h1M12 10h1M15 10h2M2 11h1M5 11h1M7 11h1M9 11h1M12 11h1M14 11h1M17 11h1M3 12h2M8 12h4M15 12h2M5 13h1M14 13h1M5 14h1M14 14h1M5 15h1M14 15h1M6 16h1M9 16h2M13 16h1M7 17h2M11 17h2" />
</svg>