<?xml version="1.0" encoding="utf-8"?>
<!-- Generator: Adobe Illustrator 22.1.0, SVG Export Plug-In . SVG Version: 6.00 Build 0)  -->
<svg version="1.1" id="Слой_1" xmlns="http://www.w3.org/2000/svg" xmlns:xlink="http://www.w3.org/1999/xlink" x="0px" y="0px"
	 viewBox="0 0 16 16" style="enable-background:new 0 0 16 16;" xml:space="preserve">
<style type="text/css">
	.st0{fill:#010202;}
</style>
<rect x="5.1" y="2.5" class="st0" width="1" height="1"/>
<rect x="6.3" y="1.5" class="st0" width="1" height="1"/>
<rect x="7.5" y="1.5" class="st0" width="1" height="1"/>
<rect x="8.7" y="1.5" class="st0" width="1" height="1"/>
<rect x="9.9" y="2.5" class="st0" width="1" height="1"/>
<rect x="3.9" y="3.5" class="st0" width="1" height="1"/>
<rect x="11.1" y="3.5" class="st0" width="1" height="1"/>
<rect x="12.1" y="4.7" class="st0" width="1" height="1"/>
<rect x="2.9" y="4.7" class="st0" width="1" height="1"/>
<rect x="12.1" y="5.8" transform="matrix(-1.836970e-16 1 -1 -1.836970e-16 18.9133 -6.2674)" class="st0" width="1" height="1"/>
<rect x="12.1" y="7" transform="matrix(-1.836970e-16 1 -1 -1.836970e-16 20.1101 -5.0706)" class="st0" width="1" height="1"/>
<rect x="12.1" y="8.2" transform="matrix(-1.836970e-16 1 -1 -1.836970e-16 21.3069 -3.8738)" class="st0" width="1" height="1"/>
<rect x="11.1" y="9.4" transform="matrix(-1.836970e-16 1 -1 -1.836970e-16 21.5037 -1.6771)" class="st0" width="1" height="1"/>
<rect x="2.9" y="5.8" transform="matrix(-1.836970e-16 1 -1 -1.836970e-16 9.7326 2.9133)" class="st0" width="1" height="1"/>
<rect x="2.9" y="7" transform="matrix(-1.836970e-16 1 -1 -1.836970e-16 10.9294 4.1101)" class="st0" width="1" height="1"/>
<rect x="2.9" y="8.2" transform="matrix(-1.836970e-16 1 -1 -1.836970e-16 12.1262 5.3069)" class="st0" width="1" height="1"/>
<rect x="1.8" y="8.2" transform="matrix(-1.836970e-16 1 -1 -1.836970e-16 10.9844 6.4486)" class="st0" width="1" height="1"/>
<rect x="5.8" y="4.4" class="st0" width="1" height="1"/>
<rect x="9.2" y="4.4" class="st0" width="1" height="1"/>
<rect x="6.3" y="6.5" class="st0" width="1" height="1"/>
<rect x="7.5" y="6.5" class="st0" width="1" height="1"/>
<rect x="8.7" y="6.5" class="st0" width="1" height="1"/>
<rect x="9.7" y="7.7" class="st0" width="1" height="1"/>
<rect x="5.3" y="7.7" class="st0" width="1" height="1"/>
<rect x="6.3" y="8.9" class="st0" width="1" height="1"/>
<rect x="7.5" y="8.9" class="st0" width="1" height="1"/>
<rect x="8.7" y="8.9" class="st0" width="1" height="1"/>
<rect x="7.5" y="7.7" class="st0" width="1" height="1"/>
<rect x="3.9" y="9.4" transform="matrix(-1.836970e-16 1 -1 -1.836970e-16 14.3229 5.5037)" class="st0" width="1" height="1"/>
<rect x="0.8" y="9.4" transform="matrix(-1.836970e-16 1 -1 -1.836970e-16 11.1812 8.6454)" class="st0" width="1" height="1"/>
<rect x="2.8" y="10.6" transform="matrix(-1.836970e-16 1 -1 -1.836970e-16 14.4489 7.7713)" class="st0" width="1" height="1"/>
<rect x="1.7" y="10.6" transform="matrix(-1.836970e-16 1 -1 -1.836970e-16 13.3071 8.9131)" class="st0" width="1" height="1"/>
<rect x="11.1" y="1.5" class="st0" width="1" height="1"/>
<rect x="13.2" y="1.5" class="st0" width="1" height="1"/>
<rect x="14.4" y="2.5" class="st0" width="1" height="1"/>
<rect x="13.2" y="3.5" class="st0" width="1" height="1"/>
<rect x="12.2" y="0.3" class="st0" width="1" height="1"/>
<rect x="3.9" y="1.5" transform="matrix(-1 -4.456536e-11 4.456536e-11 -1 8.8193 4.0165)" class="st0" width="1" height="1"/>
<rect x="1.7" y="1.5" transform="matrix(-1 -4.456536e-11 4.456536e-11 -1 4.394 4.0165)" class="st0" width="1" height="1"/>
<rect x="0.5" y="2.5" transform="matrix(-1 -4.547486e-11 4.547486e-11 -1 2.0624 6.0165)" class="st0" width="1" height="1"/>
<rect x="1.7" y="3.5" transform="matrix(-1 -4.456536e-11 4.456536e-11 -1 4.394 8.0165)" class="st0" width="1" height="1"/>
<rect x="2.8" y="0.3" transform="matrix(-1 -4.456536e-11 4.456536e-11 -1 6.5183 1.6858)" class="st0" width="1" height="1"/>
<rect x="12.1" y="10.6" transform="matrix(-1.836970e-16 1 -1 -1.836970e-16 23.7004 -1.4803)" class="st0" width="1" height="1"/>
<rect x="5" y="12.8" class="st0" width="1" height="1"/>
<rect x="8.7" y="14" class="st0" width="1" height="1"/>
<rect x="9.9" y="14" class="st0" width="1" height="1"/>
<rect x="11.1" y="14" class="st0" width="1" height="1"/>
<rect x="3.8" y="11.8" class="st0" width="1" height="1"/>
<rect x="11" y="11.8" class="st0" width="1" height="1"/>
<rect x="13.2" y="8.2" transform="matrix(-4.547492e-11 1 -1 -4.547492e-11 22.4574 -5.0243)" class="st0" width="1" height="1"/>
<rect x="14.2" y="9.4" transform="matrix(-4.365593e-11 1 -1 -4.365593e-11 24.6541 -4.8275)" class="st0" width="1" height="1"/>
<rect x="13.3" y="10.6" transform="matrix(-4.365593e-11 1 -1 -4.365593e-11 24.9218 -2.7016)" class="st0" width="1" height="1"/>
<rect x="3.8" y="14" class="st0" width="1" height="1"/>
<rect x="5" y="14" class="st0" width="1" height="1"/>
<rect x="6.2" y="14" class="st0" width="1" height="1"/>
<rect x="9.9" y="12.8" class="st0" width="1" height="1"/>
<rect x="7.5" y="12.8" class="st0" width="1" height="1"/>
</svg>