<?xml version="1.0" encoding="utf-8"?>
<!-- Generator: Adobe Illustrator 22.1.0, SVG Export Plug-In . SVG Version: 6.00 Build 0)  -->
<svg version="1.1" id="Слой_1" xmlns="http://www.w3.org/2000/svg" xmlns:xlink="http://www.w3.org/1999/xlink" x="0px" y="0px"
	 viewBox="0 0 16 16" style="enable-background:new 0 0 16 16;" xml:space="preserve">
<style type="text/css">
	.st0{fill:#010202;}
</style>
<rect x="5.1" y="3.5" class="st0" width="1" height="1"/>
<rect x="6.3" y="2.5" class="st0" width="1" height="1"/>
<rect x="7.5" y="2.5" class="st0" width="1" height="1"/>
<rect x="8.7" y="2.5" class="st0" width="1" height="1"/>
<rect x="9.9" y="3.5" class="st0" width="1" height="1"/>
<rect x="3.9" y="4.5" class="st0" width="1" height="1"/>
<rect x="11.1" y="4.5" class="st0" width="1" height="1"/>
<rect x="12.1" y="5.7" class="st0" width="1" height="1"/>
<rect x="2.9" y="5.7" class="st0" width="1" height="1"/>
<rect x="12.1" y="6.8" transform="matrix(-1.836970e-16 1 -1 -1.836970e-16 19.9133 -5.2674)" class="st0" width="1" height="1"/>
<rect x="12.1" y="8" transform="matrix(-1.836970e-16 1 -1 -1.836970e-16 21.1101 -4.0706)" class="st0" width="1" height="1"/>
<rect x="12.1" y="9.2" transform="matrix(-1.836970e-16 1 -1 -1.836970e-16 22.3069 -2.8738)" class="st0" width="1" height="1"/>
<rect x="11.1" y="10.4" transform="matrix(-1.836970e-16 1 -1 -1.836970e-16 22.5037 -0.6771)" class="st0" width="1" height="1"/>
<rect x="2.9" y="6.8" transform="matrix(-1.836970e-16 1 -1 -1.836970e-16 10.7326 3.9133)" class="st0" width="1" height="1"/>
<rect x="2.9" y="8" transform="matrix(-1.836970e-16 1 -1 -1.836970e-16 11.9294 5.1101)" class="st0" width="1" height="1"/>
<rect x="2.9" y="9.2" transform="matrix(-1.836970e-16 1 -1 -1.836970e-16 13.1262 6.3069)" class="st0" width="1" height="1"/>
<rect x="1.8" y="9.2" transform="matrix(-1.836970e-16 1 -1 -1.836970e-16 11.9844 7.4486)" class="st0" width="1" height="1"/>
<rect x="6.3" y="7.5" class="st0" width="1" height="1"/>
<rect x="7.5" y="7.5" class="st0" width="1" height="1"/>
<rect x="8.7" y="7.5" class="st0" width="1" height="1"/>
<rect x="9.7" y="8.7" class="st0" width="1" height="1"/>
<rect x="5.3" y="8.7" class="st0" width="1" height="1"/>
<rect x="6.3" y="9.9" class="st0" width="1" height="1"/>
<rect x="7.5" y="9.9" class="st0" width="1" height="1"/>
<rect x="8.7" y="9.9" class="st0" width="1" height="1"/>
<rect x="7.5" y="8.7" class="st0" width="1" height="1"/>
<rect x="3.9" y="10.4" transform="matrix(-1.836970e-16 1 -1 -1.836970e-16 15.3229 6.5037)" class="st0" width="1" height="1"/>
<rect x="0.8" y="10.4" transform="matrix(-1.836970e-16 1 -1 -1.836970e-16 12.1812 9.6454)" class="st0" width="1" height="1"/>
<rect x="2.8" y="11.6" transform="matrix(-1.836970e-16 1 -1 -1.836970e-16 15.4489 8.7713)" class="st0" width="1" height="1"/>
<rect x="1.7" y="11.6" transform="matrix(-1.836970e-16 1 -1 -1.836970e-16 14.3071 9.9131)" class="st0" width="1" height="1"/>
<rect x="11.1" y="2.5" class="st0" width="1" height="1"/>
<rect x="13.2" y="2.5" class="st0" width="1" height="1"/>
<rect x="14.4" y="3.5" class="st0" width="1" height="1"/>
<rect x="13.2" y="4.5" class="st0" width="1" height="1"/>
<rect x="12.2" y="1.3" class="st0" width="1" height="1"/>
<rect x="3.9" y="2.5" transform="matrix(-1 -4.456536e-11 4.456536e-11 -1 8.8193 6.0165)" class="st0" width="1" height="1"/>
<rect x="1.7" y="2.5" transform="matrix(-1 -4.456536e-11 4.456536e-11 -1 4.394 6.0165)" class="st0" width="1" height="1"/>
<rect x="0.5" y="3.5" transform="matrix(-1 -4.547486e-11 4.547486e-11 -1 2.0624 8.0165)" class="st0" width="1" height="1"/>
<rect x="1.7" y="4.5" transform="matrix(-1 -4.456536e-11 4.456536e-11 -1 4.394 10.0165)" class="st0" width="1" height="1"/>
<rect x="2.8" y="1.3" transform="matrix(-1 -4.456536e-11 4.456536e-11 -1 6.5183 3.6858)" class="st0" width="1" height="1"/>
<rect x="12.1" y="11.6" transform="matrix(-1.836970e-16 1 -1 -1.836970e-16 24.7004 -0.4803)" class="st0" width="1" height="1"/>
<rect x="5" y="13.8" class="st0" width="1" height="1"/>
<rect x="3.8" y="12.8" class="st0" width="1" height="1"/>
<rect x="11" y="12.8" class="st0" width="1" height="1"/>
<rect x="13.2" y="9.2" transform="matrix(-4.547492e-11 1 -1 -4.547492e-11 23.4574 -4.0243)" class="st0" width="1" height="1"/>
<rect x="14.2" y="10.4" transform="matrix(-4.365593e-11 1 -1 -4.365593e-11 25.6541 -3.8275)" class="st0" width="1" height="1"/>
<rect x="13.3" y="11.6" transform="matrix(-4.365593e-11 1 -1 -4.365593e-11 25.9218 -1.7016)" class="st0" width="1" height="1"/>
<rect x="9.9" y="13.8" class="st0" width="1" height="1"/>
<rect x="7.5" y="13.8" class="st0" width="1" height="1"/>
<rect x="6.3" y="13.8" class="st0" width="1" height="1"/>
<rect x="8.7" y="13.8" class="st0" width="1" height="1"/>
<rect x="5" y="5.8" class="st0" width="1" height="1"/>
<rect x="6.2" y="5.8" class="st0" width="1" height="1"/>
<rect x="8.7" y="5.8" class="st0" width="1" height="1"/>
<rect x="9.9" y="5.8" class="st0" width="1" height="1"/>
</svg>
