<?xml version="1.0" encoding="iso-8859-1"?>
<!-- Generator: Adobe Illustrator 19.0.0, SVG Export Plug-In . SVG Version: 6.00 Build 0)  -->
<svg version="1.1" id="Capa_1" xmlns="http://www.w3.org/2000/svg" xmlns:xlink="http://www.w3.org/1999/xlink" x="0px" y="0px"
	 viewBox="0 0 464 464" style="enable-background:new 0 0 464 464;" xml:space="preserve">
<g>
	<path style="fill:#FDB62F;" d="M168,424h128c17.673,0,32,14.327,32,32l0,0H136l0,0C136,438.327,150.327,424,168,424z"/>
	<path style="fill:#FDB62F;" d="M216,312h32v112h-32V312z"/>
</g>
<g>
	<path style="fill:#F5923B;" d="M216,312h32v24h-32V312z"/>
	<path style="fill:#F5923B;" d="M96,136h24v16H96V136z"/>
	<path style="fill:#F5923B;" d="M344,136h24v16h-24V136z"/>
</g>
<path style="fill:#4398D1;" d="M232,8L232,8c44.183,0,80,35.817,80,80v112c0,44.183-35.817,80-80,80l0,0c-44.183,0-80-35.817-80-80
	V88C152,43.817,187.817,8,232,8z"/>
<path style="fill:#3E8CC7;" d="M268.368,16.8c6.756,11.96,10.303,25.464,10.296,39.2v112c0.061,44.125-35.66,79.945-79.786,80.006
	c-12.719,0.018-25.258-3.002-36.574-8.806c21.691,38.492,70.478,52.112,108.97,30.422C296.411,255.457,311.973,228.853,312,200V88
	C311.99,57.954,295.135,30.449,268.368,16.8L268.368,16.8z"/>
<path style="fill:#FDB62F;" d="M232,320c-66.243-0.075-119.925-53.757-120-120v-80c0-4.418,3.582-8,8-8s8,3.582,8,8v80
	c0,57.438,46.562,104,104,104s104-46.562,104-104v-80c0-4.418,3.582-8,8-8s8,3.582,8,8v80C351.925,266.243,298.243,319.925,232,320z
	"/>
<g>
	<path style="fill:#2A7DB8;" d="M232,232c-4.418,0-8,3.582-8,8v39.6c2.632,0.256,5.296,0.4,8,0.4c2.704,0,5.368-0.144,8-0.4V240
		C240,235.582,236.418,232,232,232z"/>
	<path style="fill:#2A7DB8;" d="M264,232c-4.418,0-8,3.582-8,8v36.328c5.579-1.778,10.945-4.165,16-7.12V240
		C272,235.582,268.418,232,264,232z"/>
	<path style="fill:#2A7DB8;" d="M200,232c-4.418,0-8,3.582-8,8v29.208c5.055,2.955,10.421,5.342,16,7.12V240
		C208,235.582,204.418,232,200,232z"/>
	<path style="fill:#2A7DB8;" d="M216,80c0-4.418-3.582-8-8-8h-54.4c-1.066,5.267-1.602,10.627-1.6,16h56
		C212.418,88,216,84.418,216,80z"/>
	<path style="fill:#2A7DB8;" d="M216,112c0-4.418-3.582-8-8-8h-56v16h56C212.418,120,216,116.418,216,112z"/>
	<path style="fill:#2A7DB8;" d="M216,144c0-4.418-3.582-8-8-8h-56v16h56C212.418,152,216,148.418,216,144z"/>
	<path style="fill:#2A7DB8;" d="M216,176c0-4.418-3.582-8-8-8h-56v16h56C212.418,184,216,180.418,216,176z"/>
	<path style="fill:#2A7DB8;" d="M216,208c0-4.418-3.582-8-8-8h-56c-0.002,5.373,0.534,10.733,1.6,16H208
		C212.418,216,216,212.418,216,208z"/>
	<path style="fill:#2A7DB8;" d="M248,80c0,4.418,3.582,8,8,8h56c0.002-5.373-0.534-10.733-1.6-16H256C251.582,72,248,75.582,248,80z
		"/>
	<path style="fill:#2A7DB8;" d="M248,112c0,4.418,3.582,8,8,8h56v-16h-56C251.582,104,248,107.582,248,112z"/>
	<path style="fill:#2A7DB8;" d="M248,144c0,4.418,3.582,8,8,8h56v-16h-56C251.582,136,248,139.582,248,144z"/>
	<path style="fill:#2A7DB8;" d="M248,176c0,4.418,3.582,8,8,8h56v-16h-56C251.582,168,248,171.582,248,176z"/>
	<path style="fill:#2A7DB8;" d="M248,208c0,4.418,3.582,8,8,8h54.4c1.066-5.267,1.602-10.627,1.6-16h-56
		C251.582,200,248,203.582,248,208z"/>
	<path style="fill:#2A7DB8;" d="M232,56c4.418,0,8-3.582,8-8V8.4c-2.632-0.256-5.296-0.4-8-0.4s-5.368,0.144-8,0.4V48
		C224,52.418,227.582,56,232,56z"/>
	<path style="fill:#2A7DB8;" d="M200,56c4.418,0,8-3.582,8-8V11.672c-5.579,1.778-10.945,4.165-16,7.12V48
		C192,52.418,195.582,56,200,56z"/>
	<path style="fill:#2A7DB8;" d="M264,56c4.418,0,8-3.582,8-8V18.792c-5.055-2.955-10.421-5.342-16-7.12V48
		C256,52.418,259.582,56,264,56z"/>
</g>
<path d="M232,288c48.577-0.057,87.943-39.423,88-88V88c0-48.601-39.399-88-88-88s-88,39.399-88,88v112
	C144.057,248.577,183.423,287.943,232,288z M192,28.176V48c0,4.418,3.582,8,8,8s8-3.582,8-8V20.2c5.171-1.858,10.54-3.109,16-3.728
	V48c0,4.418,3.582,8,8,8s8-3.582,8-8V16.472c5.46,0.619,10.829,1.87,16,3.728V48c0,4.418,3.582,8,8,8s8-3.582,8-8V28.176
	C287.262,38.413,298.043,54.087,302.144,72H256c-4.418,0-8,3.582-8,8s3.582,8,8,8h48v16h-48c-4.418,0-8,3.582-8,8s3.582,8,8,8h48v16
	h-48c-4.418,0-8,3.582-8,8s3.582,8,8,8h48v16h-48c-4.418,0-8,3.582-8,8s3.582,8,8,8h48v16h-48c-4.418,0-8,3.582-8,8s3.582,8,8,8
	h46.144c-4.101,17.913-14.882,33.587-30.144,43.824V240c0-4.418-3.582-8-8-8s-8,3.582-8,8v27.8c-5.171,1.858-10.54,3.109-16,3.728
	V240c0-4.418-3.582-8-8-8s-8,3.582-8,8v31.528c-5.46-0.619-10.829-1.87-16-3.728V240c0-4.418-3.582-8-8-8s-8,3.582-8,8v19.824
	c-15.262-10.237-26.043-25.911-30.144-43.824H208c4.418,0,8-3.582,8-8s-3.582-8-8-8h-48v-16h48c4.418,0,8-3.582,8-8s-3.582-8-8-8
	h-48v-16h48c4.418,0,8-3.582,8-8s-3.582-8-8-8h-48v-16h48c4.418,0,8-3.582,8-8s-3.582-8-8-8h-48V88h48c4.418,0,8-3.582,8-8
	s-3.582-8-8-8h-46.144C165.957,54.087,176.738,38.413,192,28.176L192,28.176z"/>
<path d="M368,136h-16v-16c0-4.418-3.582-8-8-8s-8,3.582-8,8v80c0,57.438-46.562,104-104,104s-104-46.562-104-104v-80
	c0-4.418-3.582-8-8-8s-8,3.582-8,8v16H96v16h16v48c0.066,57.005,40.163,106.123,96,117.6V416h-40c-22.08,0.026-39.974,17.92-40,40v8
	h208v-8c-0.026-22.08-17.92-39.974-40-40h-40v-98.4c55.837-11.477,95.934-60.595,96-117.6v-48h16V136z M318.632,448H145.368
	c3.403-9.582,12.464-15.988,22.632-16h128C306.168,432.012,315.229,438.418,318.632,448z M240,416h-16v-96.408
	c2.656,0.176,5.296,0.408,8,0.408c2.704,0,5.344-0.232,8-0.408V416z"/>
<g>
</g>
<g>
</g>
<g>
</g>
<g>
</g>
<g>
</g>
<g>
</g>
<g>
</g>
<g>
</g>
<g>
</g>
<g>
</g>
<g>
</g>
<g>
</g>
<g>
</g>
<g>
</g>
<g>
</g>
</svg>
