<?xml version="1.0" encoding="iso-8859-1"?>
<!-- Generator: Adobe Illustrator 19.0.0, SVG Export Plug-In . SVG Version: 6.00 Build 0)  -->
<svg version="1.1" id="Layer_1" xmlns="http://www.w3.org/2000/svg" xmlns:xlink="http://www.w3.org/1999/xlink" x="0px" y="0px"
	 viewBox="0 0 512.001 512.001" style="enable-background:new 0 0 512.001 512.001;" xml:space="preserve">
<path style="fill:#EDC3D5;" d="M417.545,429.402h-58.864c-3.755,0-6.799-3.044-6.799-6.799v-87.252h72.461v87.252
	C424.343,426.358,421.299,429.402,417.545,429.402z"/>
<path style="opacity:0.08;enable-background:new    ;" d="M417.545,429.402h-58.864c-3.755,0-6.799-3.044-6.799-6.799v-87.252
	h72.461v87.252C424.343,426.358,421.299,429.402,417.545,429.402z"/>
<path style="fill:#4A5058;" d="M417.545,429.402h-58.864c-3.755,0-6.799-3.044-6.799-6.799v-19.348h72.461v19.348
	C424.343,426.358,421.299,429.402,417.545,429.402z"/>
<path style="fill:#E99B98;" d="M475.232,130.418L475.232,130.418c-14.452-0.017-28.868,1.439-43.026,4.343l0,0
	c-8.113,1.664-11.647,11.277-6.544,17.801l0,0c16.4,20.962,35.291,39.853,56.253,56.253l0,0c6.523,5.103,16.136,1.569,17.801-6.544
	l0,0c2.904-14.154,4.359-28.567,4.343-43.016v-0.01C504.042,143.332,491.145,130.436,475.232,130.418z"/>
<path style="fill:#EDBCB9;" d="M351.578,106.593H208.899c-75.014,0-135.826,60.811-135.826,135.825l0,0
	c0,39.842,17.154,75.677,44.48,100.522v79.661c0,3.755,3.044,6.799,6.799,6.799h58.864c3.755,0,6.799-3.044,6.799-6.799V376.93
	c6.172,0.859,12.475,1.313,18.884,1.313h43.165v44.358c0,3.755,3.044,6.799,6.799,6.799h58.864c3.755,0,6.799-3.044,6.799-6.799
	v-44.358h27.053c75.014,0,135.825-60.811,135.825-135.826l0,0C487.404,167.404,426.593,106.593,351.578,106.593z"/>
<g style="opacity:0.05;">
	<ellipse cx="117.939" cy="249.642" rx="18.114" ry="23.408"/>
	<ellipse cx="160.287" cy="289.745" rx="14.885" ry="19.226"/>
	<ellipse cx="167.55" cy="228.637" rx="12.35" ry="15.955"/>
</g>
<path style="fill:#E99B98;" d="M349.415,202.398L349.415,202.398c-12.107,12.08-22.954,25.361-32.371,39.639l0,0
	c-5.396,8.182-0.309,19.184,9.42,20.372l0,0c31.267,3.818,62.882,3.818,94.148,0l0,0c9.729-1.188,14.816-12.19,9.42-20.372l0,0
	c-9.414-14.274-20.258-27.554-32.363-39.631l-0.008-0.008C384.331,189.098,362.747,189.097,349.415,202.398z"/>
<path style="opacity:0.1;enable-background:new    ;" d="M356.522,246.597c-4.385,0-7.94-3.555-7.94-7.94v-7.906
	c0-4.385,3.555-7.94,7.94-7.94c4.386,0,7.94,3.555,7.94,7.94v7.906C364.462,243.042,360.907,246.597,356.522,246.597z"/>
<path style="opacity:0.1;enable-background:new    ;" d="M390.557,246.597c-4.386,0-7.94-3.555-7.94-7.94v-7.906
	c0-4.385,3.554-7.94,7.94-7.94s7.94,3.555,7.94,7.94v7.906C398.498,243.042,394.944,246.597,390.557,246.597z"/>
<path style="opacity:0.02;enable-background:new    ;" d="M205,175.818L205,175.818c1.424,14.381,4.309,28.581,8.609,42.378l0,0
	c2.465,7.906,12.383,10.465,18.364,4.737l0,0c19.224-18.408,36.137-39.086,50.367-61.579l0,0c4.427-6.999-0.047-16.212-8.285-17.06
	l0,0c-14.373-1.479-28.859-1.49-43.234-0.034l-0.01,0.001C214.979,145.865,203.432,159.982,205,175.818z"/>
<path style="fill:#E99B98;" d="M217.538,159.246L217.538,159.246c-0.017,14.452,1.439,28.868,4.343,43.025l0,0
	c1.664,8.113,11.277,11.647,17.801,6.544l0,0c20.962-16.4,39.853-35.291,56.253-56.253l0,0c5.103-6.523,1.569-16.136-6.544-17.801
	l0,0c-14.154-2.904-28.567-4.359-43.016-4.343h-0.01C230.452,130.436,217.556,143.332,217.538,159.246z"/>
<g>
	<path style="fill:#4A5058;" d="M183.217,429.402h-58.864c-3.755,0-6.799-3.044-6.799-6.799v-19.348h72.461v19.348
		C190.015,426.358,186.971,429.402,183.217,429.402z"/>
	<path style="fill:#4A5058;" d="M317.727,429.402h-58.864c-3.755,0-6.799-3.044-6.799-6.799v-19.348h72.461v19.348
		C324.526,426.358,321.482,429.402,317.727,429.402z"/>
</g>
<path d="M475.242,122.478h-0.242c-13.062,0-26.217,1.196-39.162,3.529c-23.693-17.195-52.809-27.354-84.258-27.354h-142.68
	c-37.135,0-71.025,14.153-96.563,37.347c-1.693-3.043-3.709-6.039-6.077-8.964c-6.238-7.705-13.729-13.953-21.735-18.329
	c-4.376-8.006-10.624-15.497-18.329-21.734C40.975,66.554,16.665,74.6,2.326,88.939c-3.101,3.101-3.101,8.128,0,11.229
	c3.1,3.101,8.128,3.101,11.23,0c5.879-5.878,21.801-17.729,42.65-0.852c0.913,0.739,1.8,1.499,2.658,2.276
	c-11.597-0.104-22.07,4.166-30.33,12.426c-13.973,13.973-13.973,36.707,0,50.681c6.986,6.986,16.164,10.479,25.341,10.479
	s18.354-3.493,25.34-10.479c8.261-8.261,12.533-18.71,12.426-30.33c0.777,0.859,1.537,1.745,2.276,2.658
	c2.946,3.64,5.16,7.334,6.618,11.021c-22.036,25.27-35.401,58.288-35.401,94.37c0,39.23,16.167,76.919,44.481,103.975v76.208
	c0,8.128,6.612,14.739,14.738,14.739h58.864c8.128,0,14.739-6.612,14.739-14.739v-36.835c3.654,0.277,7.311,0.418,10.944,0.418
	h35.224v36.418c0,8.128,6.612,14.739,14.738,14.739h58.865c8.128,0,14.739-6.612,14.739-14.739v-36.418h11.475v36.418
	c0,8.128,6.612,14.739,14.739,14.739h58.865c8.127,0,14.738-6.612,14.738-14.739v-61.267
	c38.034-25.894,63.061-69.535,63.061-118.916c0-8.135-0.69-16.111-1.995-23.881c1.183-0.289,2.347-0.672,3.47-1.191
	c5.552-2.563,9.444-7.477,10.675-13.48c3.007-14.65,4.523-29.663,4.505-44.63C511.978,138.992,495.487,122.501,475.242,122.478z
	 M67.984,153.47c-7.781,7.78-20.441,7.781-28.223,0c-7.78-7.781-7.78-20.441,0-28.223c5.165-5.165,11.442-7.776,18.68-7.776
	c0.536,0,1.078,0.014,1.624,0.043c4.16,0.218,8.424,1.265,12.615,3.037c1.772,4.191,2.819,8.455,3.037,12.615
	C76.134,141.091,73.532,147.922,67.984,153.47z M416.402,421.461h-56.58v-35.518c20.258-1.151,39.406-6.513,56.58-15.226V421.461z
	 M351.579,370.304h-27.053c-4.386,0-7.94,3.555-7.94,7.94v43.217h-56.581v-43.217c0-4.385-3.554-7.94-7.94-7.94H208.9
	c-5.906,0-11.891-0.416-17.789-1.237c-2.273-0.318-4.576,0.366-6.308,1.875c-1.732,1.508-2.727,3.693-2.727,5.989v44.53h-56.58
	v-78.52c0-2.237-0.943-4.37-2.599-5.875c-26.617-24.2-41.882-58.698-41.882-94.648c0-70.517,57.369-127.886,127.886-127.886h142.679
	c70.516,0,127.886,57.369,127.886,127.886C479.465,312.935,422.095,370.304,351.579,370.304z M491.939,200.676
	c-0.269,1.31-1.114,1.948-1.775,2.254c-0.077,0.036-0.183,0.077-0.301,0.118c-6.949-24.372-20.189-46.117-37.837-63.373
	c7.647-0.866,15.327-1.316,22.972-1.316h0.224c11.509,0.014,20.883,9.388,20.896,20.906
	C496.135,173.147,494.729,187.079,491.939,200.676z M432.214,190.835v11.825c0,4.385,3.554,7.94,7.94,7.94
	c4.385,0,7.94-3.555,7.94-7.94v-11.825c0-4.385-3.555-7.94-7.94-7.94C435.768,182.895,432.214,186.45,432.214,190.835z
	 M403.35,196.857c-0.025-0.026-0.052-0.053-0.078-0.079c-16.393-16.356-43.07-16.356-59.463,0
	c-12.464,12.437-23.7,26.193-33.391,40.889c-4.059,6.153-4.635,13.821-1.541,20.513c3.095,6.691,9.31,11.219,16.627,12.113
	c15.94,1.946,31.985,2.919,48.037,2.919c16.047,0,32.101-0.973,48.036-2.919c7.317-0.894,13.532-5.422,16.627-12.112
	c3.095-6.69,2.519-14.359-1.54-20.513C426.989,222.999,415.781,209.269,403.35,196.857z M423.789,251.515
	c-0.369,0.799-1.513,2.693-4.137,3.014c-30.594,3.737-61.625,3.737-92.223,0c-2.626-0.321-3.768-2.215-4.137-3.014
	c-0.371-0.799-1.072-2.897,0.383-5.104c9.101-13.798,19.648-26.714,31.35-38.39c5.105-5.093,11.81-7.64,18.516-7.64
	c6.678,0,13.357,2.526,18.454,7.578c0.022,0.023,0.046,0.047,0.069,0.07c11.699,11.671,22.244,24.584,31.343,38.381
	C424.861,248.617,424.158,250.715,423.789,251.515z M310.075,199.196c0,4.385,3.554,7.94,7.94,7.94s7.94-3.555,7.94-7.94
	c0-10.494-8.536-19.03-19.031-19.03c-10.493,0-19.03,8.536-19.03,19.03c0,4.385,3.554,7.94,7.94,7.94s7.94-3.555,7.94-7.94
	c0-1.737,1.412-3.15,3.15-3.15C308.662,196.046,310.075,197.458,310.075,199.196z M305.073,139.1
	c-2.297-6.248-7.563-10.779-14.085-12.117c-14.571-2.989-29.495-4.504-44.38-4.504h-0.251
	c-20.246,0.023-36.736,16.513-36.759,36.758c-0.017,14.959,1.498,29.975,4.505,44.631c1.338,6.523,5.867,11.788,12.117,14.085
	c2.166,0.796,4.404,1.187,6.625,1.187c4.185,0,8.303-1.39,11.73-4.071c21.447-16.779,40.831-36.164,57.614-57.613
	C306.291,152.211,307.369,145.349,305.073,139.1z M289.68,147.669c-15.988,20.436-34.456,38.904-54.89,54.891
	c-1.227,0.959-2.464,0.718-3.09,0.485c-0.628-0.231-1.727-0.845-2.04-2.371c-2.791-13.601-4.197-27.537-4.181-41.42
	c0.014-11.509,9.387-20.884,20.906-20.897h0.233c13.804,0,27.657,1.406,41.178,4.181c1.526,0.312,2.14,1.411,2.371,2.039
	C290.397,145.206,290.64,146.442,289.68,147.669z"/>
<g>
</g>
<g>
</g>
<g>
</g>
<g>
</g>
<g>
</g>
<g>
</g>
<g>
</g>
<g>
</g>
<g>
</g>
<g>
</g>
<g>
</g>
<g>
</g>
<g>
</g>
<g>
</g>
<g>
</g>
</svg>
