<?xml version="1.0" encoding="iso-8859-1"?>
<!-- Generator: Adobe Illustrator 19.0.0, SVG Export Plug-In . SVG Version: 6.00 Build 0)  -->
<svg version="1.1" id="Capa_1" xmlns="http://www.w3.org/2000/svg" xmlns:xlink="http://www.w3.org/1999/xlink" x="0px" y="0px"
	 viewBox="0 0 512.002 512.002" style="enable-background:new 0 0 512.002 512.002;" xml:space="preserve">
<path style="fill:#FF6E23;" d="M396.453,231.647c-24.955,0-49.911-9.499-68.91-28.498c-37.998-37.997-37.998-99.824,0-137.821
	c15.762-15.763,48.246-27.978,99.306-37.341c35.96-6.596,67.42-9.143,68.741-9.249c4.443-0.343,8.81,1.258,11.958,4.406
	c3.148,3.148,4.759,7.519,4.406,11.958c-0.105,1.322-2.653,32.783-9.248,68.742c-9.364,51.059-21.579,83.542-37.341,99.305
	C446.365,222.148,421.409,231.647,396.453,231.647z"/>
<path style="fill:#FE9923;" d="M115.549,231.647c-24.956,0-49.912-9.499-68.911-28.498c-15.762-15.762-27.977-48.246-37.341-99.305
	c-6.595-35.959-9.142-67.42-9.249-68.742c-0.354-4.439,1.257-8.809,4.406-11.958s7.523-4.752,11.958-4.406
	c1.322,0.105,32.782,2.653,68.741,9.249c51.06,9.363,83.543,21.578,99.306,37.341c37.998,37.997,37.998,99.823,0,137.821
	C165.46,222.148,140.504,231.647,115.549,231.647z"/>
<path style="fill:#FEDBAB;" d="M255.991,493.31c-61.881,0-120.058-24.098-163.815-67.854
	C48.42,381.699,24.322,323.521,24.322,261.641S48.42,141.583,92.176,97.826c43.757-43.756,101.935-67.854,163.815-67.854
	S376.049,54.07,419.806,97.826S487.66,199.76,487.66,261.641s-24.098,120.058-67.854,163.815
	C376.05,469.212,317.873,493.31,255.991,493.31z"/>
<path style="fill:#FEC478;" d="M256.064,29.971v463.338c61.854-0.019,120.003-24.114,163.742-67.853
	c43.756-43.757,67.854-101.935,67.854-163.815s-24.098-120.058-67.854-163.814C376.068,54.086,317.918,29.991,256.064,29.971z"/>
<path style="fill:#FE9923;" d="M137.315,249.88c7.953,0,15.573-6.993,15.205-15.205c-0.369-8.238-6.681-15.205-15.205-15.205
	c-7.953,0-15.573,6.993-15.205,15.205C122.479,242.913,128.79,249.88,137.315,249.88L137.315,249.88z"/>
<path style="fill:#FF6E23;" d="M374.669,249.88c7.953,0,15.573-6.993,15.205-15.205c-0.369-8.238-6.681-15.205-15.205-15.205
	c-7.953,0-15.573,6.993-15.205,15.205C359.833,242.913,366.145,249.88,374.669,249.88L374.669,249.88z"/>
<path style="fill:#FE9923;" d="M299.476,407.959h-86.968c-38.349,0-69.547-31.198-69.547-69.546v-6.986
	c0-38.347,31.198-69.546,69.547-69.546h86.968c38.348,0,69.546,31.198,69.546,69.546v6.986
	C369.022,376.761,337.824,407.959,299.476,407.959z"/>
<path style="fill:#FF6E23;" d="M299.476,261.881h-43.412v146.078h43.412c38.348,0,69.546-31.198,69.546-69.546v-6.986
	C369.022,293.08,337.824,261.881,299.476,261.881z"/>
<path style="fill:#FEDBAB;" d="M214.673,350.125c7.953,0,15.573-6.993,15.205-15.205c-0.369-8.238-6.681-15.205-15.205-15.205
	c-7.953,0-15.573,6.993-15.205,15.205C199.837,343.159,206.149,350.125,214.673,350.125L214.673,350.125z"/>
<path style="fill:#FEC478;" d="M297.31,350.125c7.953,0,15.573-6.993,15.205-15.205c-0.369-8.238-6.681-15.205-15.205-15.205
	c-7.953,0-15.573,6.993-15.205,15.205C282.474,343.159,288.786,350.125,297.31,350.125L297.31,350.125z"/>
<g>
</g>
<g>
</g>
<g>
</g>
<g>
</g>
<g>
</g>
<g>
</g>
<g>
</g>
<g>
</g>
<g>
</g>
<g>
</g>
<g>
</g>
<g>
</g>
<g>
</g>
<g>
</g>
<g>
</g>
</svg>
