<?xml version="1.0" standalone="no"?>
<!DOCTYPE svg PUBLIC "-//W3C//DTD SVG 20010904//EN"
 "http://www.w3.org/TR/2001/REC-SVG-20010904/DTD/svg10.dtd">
<svg version="1.0" xmlns="http://www.w3.org/2000/svg"
 width="960.000000pt" height="960.000000pt" viewBox="0 0 960.000000 960.000000"
 preserveAspectRatio="xMidYMid meet">
<metadata>
Created by potrace 1.15, written by Peter Selinger 2001-2017
</metadata>
<g transform="translate(0.000000,960.000000) scale(0.100000,-0.100000)"
fill="#000000" stroke="none">
<path d="M1800 8550 l0 -150 -150 0 -150 0 0 -150 0 -150 -150 0 -150 0 0
-150 0 -150 -150 0 -150 0 0 150 0 150 -150 0 -150 0 0 150 0 150 -300 0 -300
0 0 -150 0 -150 300 0 300 0 0 -150 0 -150 150 0 150 0 0 -150 0 -150 -150 0
-150 0 0 -300 0 -300 -150 0 -150 0 0 -300 0 -300 150 0 150 0 0 300 0 300
150 0 150 0 0 300 0 300 150 0 150 0 0 -150 0 -150 300 0 300 0 0 -150 0 -150
150 0 150 0 0 150 0 150 -150 0 -150 0 0 150 0 150 -300 0 -300 0 0 150 0 150
150 0 150 0 0 150 0 150 150 0 150 0 0 150 0 150 300 0 300 0 0 150 0 150
-300 0 -300 0 0 -150z"/>
<path d="M6600 8550 l0 -150 150 0 150 0 0 -150 0 -150 450 0 450 0 0 -150 0
-150 -150 0 -150 0 0 -150 0 -150 -150 0 -150 0 0 -150 0 -150 -150 0 -150 0
0 -300 0 -300 150 0 150 0 0 300 0 300 150 0 150 0 0 150 0 150 150 0 150 0 0
150 0 150 150 0 150 0 0 -150 0 -150 300 0 300 0 0 -300 0 -300 150 0 150 0 0
300 0 300 -150 0 -150 0 0 150 0 150 -300 0 -300 0 0 150 0 150 150 0 150 0 0
150 0 150 300 0 300 0 0 150 0 150 -300 0 -300 0 0 -150 0 -150 -150 0 -150 0
0 -150 0 -150 -150 0 -150 0 0 150 0 150 -450 0 -450 0 0 150 0 150 -150 0
-150 0 0 -150z"/>
<path d="M3000 6750 l0 -150 -300 0 -300 0 0 -300 0 -300 -150 0 -150 0 0
-150 0 -150 -150 0 -150 0 0 -450 0 -450 150 0 150 0 0 -300 0 -300 150 0 150
0 0 -150 0 -150 150 0 150 0 0 -150 0 -150 450 0 450 0 0 -150 0 -150 750 0
750 0 0 150 0 150 300 0 300 0 0 150 0 150 450 0 450 0 0 150 0 150 150 0 150
0 0 300 0 300 150 0 150 0 0 600 0 600 -150 0 -150 0 0 150 0 150 -300 0 -300
0 0 150 0 150 -300 0 -300 0 0 150 0 150 -1350 0 -1350 0 0 -150z m2400 -300
l0 -150 450 0 450 0 0 -150 0 -150 150 0 150 0 0 -150 0 -150 150 0 150 0 0
-300 0 -300 -150 0 -150 0 0 -300 0 -300 -150 0 -150 0 0 -150 0 -150 -300 0
-300 0 0 -150 0 -150 -450 0 -450 0 0 -150 0 -150 -600 0 -600 0 0 150 0 150
-300 0 -300 0 0 150 0 150 -150 0 -150 0 0 150 0 150 -150 0 -150 0 0 300 0
300 -150 0 -150 0 0 150 0 150 150 0 150 0 0 150 0 150 150 0 150 0 0 300 0
300 300 0 300 0 0 150 0 150 1050 0 1050 0 0 -150z"/>
<path d="M4800 5850 l0 -450 150 0 150 0 0 -150 0 -150 150 0 150 0 0 300 0
300 -150 0 -150 0 0 300 0 300 -150 0 -150 0 0 -450z"/>
<path d="M3600 5700 l0 -300 150 0 150 0 0 -300 0 -300 150 0 150 0 0 300 0
300 -150 0 -150 0 0 300 0 300 -150 0 -150 0 0 -300z"/>
</g>
</svg>
